<svg width="21" height="20" viewBox="0 0 21 20" fill="none" xmlns="http://www.w3.org/2000/svg">
<mask id="mask0_554_1014" style="mask-type:alpha" maskUnits="userSpaceOnUse" x="0" y="0" width="21" height="20">
<rect x="0.5" width="20" height="20" fill="#D9D9D9"/>
</mask>
<g mask="url(#mask0_554_1014)">
<path d="M9.42682 14.3852C9.1007 14.723 8.56099 14.7277 8.22899 14.3957L4.54036 10.7071C4.14984 10.3166 4.14983 9.68342 4.54036 9.29289L8.22899 5.60426C8.56099 5.27226 9.1007 5.277 9.42682 5.61476C9.74495 5.94425 9.74035 6.4679 9.41649 6.79176L7.04159 9.16667H16.3333C16.7935 9.16667 17.1666 9.53976 17.1666 10C17.1666 10.4602 16.7935 10.8333 16.3333 10.8333H7.04159L9.41649 13.2082C9.74035 13.5321 9.74495 14.0557 9.42682 14.3852Z" fill="#E4E4E7"/>
</g>
</svg>
