<svg width="16" height="16" viewBox="0 0 16 16" fill="none" xmlns="http://www.w3.org/2000/svg">
<mask id="mask0_324_2341" style="mask-type:alpha" maskUnits="userSpaceOnUse" x="0" y="0" width="16" height="16">
<rect width="16" height="16" fill="#D9D9D9"/>
</mask>
<g mask="url(#mask0_324_2341)">
<path d="M7.99967 11.3333C8.18856 11.3333 8.3469 11.2694 8.47467 11.1416C8.60245 11.0138 8.66634 10.8555 8.66634 10.6666C8.66634 10.4777 8.60245 10.3194 8.47467 10.1916C8.3469 10.0638 8.18856 9.99992 7.99967 9.99992C7.81079 9.99992 7.65245 10.0638 7.52467 10.1916C7.3969 10.3194 7.33301 10.4777 7.33301 10.6666C7.33301 10.8555 7.3969 11.0138 7.52467 11.1416C7.65245 11.2694 7.81079 11.3333 7.99967 11.3333ZM7.99967 8.66658C8.18856 8.66658 8.3469 8.6027 8.47467 8.47492C8.60245 8.34714 8.66634 8.18881 8.66634 7.99992V5.33325C8.66634 5.14436 8.60245 4.98603 8.47467 4.85825C8.3469 4.73047 8.18856 4.66658 7.99967 4.66658C7.81079 4.66658 7.65245 4.73047 7.52467 4.85825C7.3969 4.98603 7.33301 5.14436 7.33301 5.33325V7.99992C7.33301 8.18881 7.3969 8.34714 7.52467 8.47492C7.65245 8.6027 7.81079 8.66658 7.99967 8.66658ZM7.99967 14.6666C7.07745 14.6666 6.21079 14.4916 5.39967 14.1416C4.58856 13.7916 3.88301 13.3166 3.28301 12.7166C2.68301 12.1166 2.20801 11.411 1.85801 10.5999C1.50801 9.78881 1.33301 8.92214 1.33301 7.99992C1.33301 7.0777 1.50801 6.21103 1.85801 5.39992C2.20801 4.58881 2.68301 3.88325 3.28301 3.28325C3.88301 2.68325 4.58856 2.20825 5.39967 1.85825C6.21079 1.50825 7.07745 1.33325 7.99967 1.33325C8.9219 1.33325 9.78856 1.50825 10.5997 1.85825C11.4108 2.20825 12.1163 2.68325 12.7163 3.28325C13.3163 3.88325 13.7913 4.58881 14.1413 5.39992C14.4913 6.21103 14.6663 7.0777 14.6663 7.99992C14.6663 8.92214 14.4913 9.78881 14.1413 10.5999C13.7913 11.411 13.3163 12.1166 12.7163 12.7166C12.1163 13.3166 11.4108 13.7916 10.5997 14.1416C9.78856 14.4916 8.9219 14.6666 7.99967 14.6666Z" fill="#EF4444"/>
</g>
</svg>
